<svg width="175" height="52" viewBox="0 0 175 52" fill="none" xmlns="http://www.w3.org/2000/svg">
<path fill-rule="evenodd" clip-rule="evenodd" d="M83.4393 20.9769C85.6491 21.6858 86.6253 26.1495 83.576 30.1455C83.0567 30.8256 77.2818 37.8192 76.8818 37.3027C74.6265 34.3914 68.9501 30.3184 69.6677 24.9964C70.0021 22.514 73.2698 19.6972 76.1877 24.6768C76.6031 25.3863 76.9951 26.1126 77.3843 26.8403C78.0443 25.3984 79.1197 22.9924 80.2654 22.0389C81.0628 21.3769 82.3673 20.6319 83.44 20.9769H83.4393Z" fill="#FF6231"/>
<path d="M132.018 14.6093C132.824 14.6093 133.327 14.7098 133.63 15.2137C133.932 15.818 134.235 16.5229 134.235 17.6311C134.235 19.4442 133.429 21.5601 132.018 23.0703C131.112 24.1786 129.701 25.2868 127.284 25.6901C127.384 22.8693 127.989 19.9487 128.996 17.7323C129.902 15.818 131.111 14.6093 132.017 14.6093H132.018ZM112.376 35.2587C111.57 36.9713 110.261 39.0865 108.245 39.0865C107.54 39.0865 106.935 38.2811 106.935 37.2734C106.935 34.2516 110.965 32.4386 113.382 31.733C113.079 33.0429 112.777 34.2516 112.375 35.2587H112.376ZM114.088 27.402C110.562 28.1069 105.928 30.3233 104.115 33.5461C105.626 20.6522 107.842 16.3212 109.152 15.012C109.757 14.3071 110.159 14.3071 110.159 14.3071C112.376 14.3071 114.188 19.3437 114.188 25.2868C114.188 25.9916 114.088 26.7977 114.088 27.402ZM123.356 26.4968C121.488 26.5096 119.709 26.6094 118.016 26.7977C118.117 26.2938 118.117 25.8905 118.117 25.2868C118.117 20.4519 116.606 10.3781 110.159 10.3781C104.216 10.3781 102 21.5594 101.195 26.2938C100.792 25.5889 100.288 25.1856 99.4826 25.1856C98.4756 25.1856 97.5684 26.0928 97.5684 27.201C97.5684 34.7682 98.103 42.1351 98.5151 49.6594C98.5754 50.7656 99.4216 51.7747 100.53 51.7747C101.638 51.7747 102.449 50.7636 102.545 49.6594C103.412 39.591 102.874 46.9847 103.412 39.591C104.218 41.6058 106.031 43.0162 108.246 43.0162C114.19 43.0162 116.909 35.7639 117.614 30.8278C119.407 30.529 121.299 30.2302 123.679 30.2242C123.987 32.0191 124.56 33.9193 125.573 35.6634C127.285 38.6852 130.206 40.3977 133.631 40.3977C138.351 40.3977 141.435 36.4721 143.189 33.2493C143.855 34.8011 144.621 36.0352 145.518 36.9726C146.827 38.4835 148.438 39.0879 150.151 39.0879C152.065 39.0879 154.785 38.1813 157.202 33.7498C157.403 33.3806 157.576 33.0141 157.728 32.6577C158.022 33.4443 158.209 34.1344 158.209 34.6563C158.209 35.5622 157.907 36.4694 157.706 37.2748L155.289 39.189C153.476 40.6999 152.065 42.0091 152.569 43.7217C152.669 44.3261 153.374 45.3331 155.289 45.3331C156.9 45.3331 158.713 44.0239 160.124 41.6065L161.131 39.7934L163.548 37.8798C166.57 35.6634 170.499 33.0449 174.326 30.0225C175.131 29.4181 175.232 28.1089 174.527 27.3029C173.923 26.3963 172.714 26.2958 171.807 26.9002C168.382 29.6205 165.058 32.1384 162.137 34.1532C162.036 32.2396 160.928 30.2248 159.92 27.7062C158.712 25.0878 157.403 22.0653 157.403 19.8496C157.403 19.0435 157.805 17.8348 158.51 17.2298C158.712 16.9276 158.813 16.8271 159.014 16.8271C159.115 16.9276 159.215 17.6325 159.215 17.7336C159.215 18.9423 160.122 19.8489 161.23 19.8489C164.654 19.8489 163.445 12.8981 159.114 12.8981C157.805 12.8981 156.596 13.4013 155.589 14.5095C154.28 15.8187 153.474 17.8341 153.474 19.8482C153.474 22.2636 154.375 24.9363 155.405 27.404C155.315 27.5568 155.24 27.725 155.186 27.9072C154.682 30.3247 152.566 35.1595 150.149 35.1595C149.746 35.1595 149.041 35.1595 148.437 34.3535C146.926 32.9431 144.911 28.7126 143.804 16.5236H150.351C151.459 16.5236 152.366 15.617 152.366 14.61C152.366 13.5018 151.459 12.5952 150.351 12.5952H143.602C143.602 9.92052 143.542 2.4136 143.542 2.3131C143.542 1.30606 142.736 0.293659 141.728 0.197846C140.621 0.0919831 139.613 1.00388 139.613 2.01092C139.613 2.21193 139.637 9.89104 139.774 12.5952H136.498C135.392 11.3725 133.792 10.681 132.019 10.681C129.4 10.681 127.083 12.5952 125.471 16.1209C124.162 18.941 123.356 22.6683 123.356 26.2938L123.357 26.4975L123.356 26.4968ZM138.099 16.5222H139.875C140.177 19.4435 140.378 21.9621 140.781 24.2791C141.015 25.593 141.261 26.8131 141.526 27.9427C141.073 29.0509 138.224 36.4674 133.63 36.4674C129.5 36.4674 128.089 32.6396 127.586 29.6178C130.407 29.2151 133.025 27.8047 135.04 25.6888C136.954 23.4724 138.162 20.3501 138.162 17.6298C138.162 17.2552 138.141 16.884 138.099 16.5216V16.5222Z" fill="#FF6231"/>
<path d="M13.0828 12.6572C15.7602 12.6572 18.0845 13.1035 20.0564 13.9959C22.0283 14.8884 23.5472 16.1547 24.6119 17.7963C25.6772 19.4372 26.2099 21.3802 26.2099 23.6255C26.2099 25.8419 25.6772 27.7783 24.6119 29.4332C23.5472 31.0888 22.0283 32.3552 20.0564 33.2329C18.0845 34.1113 15.7602 34.5495 13.0828 34.5495H6.99434V41.2845C6.99434 42.1649 6.27608 42.8832 5.39568 42.8832H1.59867C0.718262 42.8832 0 42.1649 0 41.2845V14.2559C0 13.3755 0.718262 12.6572 1.59867 12.6572H13.0835H13.0828ZM12.6942 28.8503C14.7954 28.8503 16.3934 28.3967 17.4875 27.4901C18.5817 26.5836 19.1284 25.2952 19.1284 23.6255C19.1284 21.927 18.5817 20.6244 17.4875 19.7172C16.3934 18.8107 14.7961 18.3571 12.6942 18.3571H6.99434V28.8503H12.6942Z" fill="white"/>
<path d="M49.9578 42.1944L44.605 34.463H44.2599H38.1715V41.2845C38.1715 42.1649 37.4532 42.8832 36.5721 42.8832H32.7751C31.894 42.8832 31.1758 42.1649 31.1758 41.2845V14.2559C31.1758 13.3755 31.894 12.6572 32.7751 12.6572H44.2599C46.9373 12.6572 49.2616 13.1035 51.2335 13.9959C53.2054 14.8884 54.7243 16.1547 55.789 17.7963C56.8543 19.4372 57.387 21.3802 57.387 23.6255C57.387 25.8714 56.8469 27.8071 55.7675 29.4332C54.6881 31.06 53.1551 32.3049 51.1692 33.1686L56.1943 40.3706C56.5441 40.8718 56.5836 41.4835 56.3009 42.0249C56.0181 42.567 55.4942 42.8845 54.8831 42.8845H51.2731C50.7317 42.8845 50.2667 42.6407 49.9585 42.1958L49.9578 42.1944ZM50.3049 23.6241C50.3049 21.9256 49.7581 20.6231 48.664 19.7159C47.5698 18.8094 45.9725 18.3558 43.8707 18.3558H38.1708V28.8918H43.8707C45.9718 28.8918 47.5698 28.4315 48.664 27.5102C49.7581 26.589 50.3049 25.2938 50.3049 23.6241Z" fill="white"/>
<path d="M77.5525 43.4015C76.7705 43.4015 76.0081 43.3593 75.2643 43.2756L71.3749 50.0126C70.3846 51.7272 68.1715 52.3202 66.4562 51.3306H66.4556C64.741 50.3403 64.1474 48.1272 65.1376 46.4119L68.3001 40.9338C66.1447 39.626 64.4281 37.908 63.151 35.7794C61.7259 33.4048 61.0137 30.7341 61.0137 27.7693C61.0137 24.8044 61.7259 22.1337 63.151 19.7592C64.5762 17.3846 66.548 15.5206 69.0666 14.1672C71.5853 12.8144 74.4141 12.1377 77.5518 12.1377C80.6895 12.1377 83.511 12.8144 86.0155 14.1672C88.52 15.52 90.4919 17.384 91.9311 19.7592C93.3703 22.1344 94.0899 24.8044 94.0899 27.7693C94.0899 30.7341 93.3703 33.4041 91.9311 35.7794C90.4919 38.1546 88.52 40.0186 86.0155 41.3714C83.511 42.7241 80.6902 43.4009 77.5518 43.4009L77.5525 43.4015ZM77.5525 38.9774C79.6201 38.9774 81.4888 38.5023 83.1565 37.5516C84.8242 36.6008 86.1334 35.2748 87.0842 33.5737C88.0343 31.8725 88.51 29.9375 88.51 27.7699C88.51 25.6018 88.0343 23.6667 87.0842 21.9656C86.1334 20.2644 84.8242 18.9391 83.1565 17.9876C81.4888 17.0369 79.6208 16.5618 77.5525 16.5618C75.4848 16.5618 73.6168 17.0369 71.9491 17.9876C70.2814 18.9384 68.9722 20.2644 68.0214 21.9656C67.0707 23.6667 66.5956 25.6018 66.5956 27.7699C66.5956 29.9381 67.0707 31.8725 68.0214 33.5737C68.9722 35.2748 70.2814 36.6008 71.9491 37.5516C73.6168 38.5023 75.4848 38.9774 77.5525 38.9774Z" fill="white"/>
</svg>
